<svg xmlns="http://www.w3.org/2000/svg" display="none">
    <symbol id="search" viewBox="0 0 17 17">
        <svg>
            <path d="M16.958 15.527L11.75 10.32A6.455 6.455 0 0 0 13 6.5 6.5 6.5 0 1 0 6.5 13a6.465 6.465 0 0 0 3.839-1.263l5.205 5.204 1.414-1.414zM6.5 11C4.019 11 2 8.981 2 6.5S4.019 2 6.5 2 11 4.019 11 6.5 8.981 11 6.5 11z"/>
        </svg>
    </symbol>
    <symbol id="login" viewBox="0 0 21 19">
        <svg>
            <g>
                <path d="M6 14.875L12.917 9.5 6 4.125v2.917H-.042v4.917H6z"/>
                <path d="M18 0H5C3.9 0 3 .9 3 2v2h2V2h13v15H5v-2H3v2c0 1.1.9 2 2 2h13c1.1 0 2-.9 2-2V2c0-1.1-.9-2-2-2z"/>
            </g>
        </svg>
    </symbol>
    <symbol id="cart" viewBox="0 0 21 20">
        <svg>
            <g>
                <path d="M5.657 2.031L5.422 0H0v2h3.64l1.5 13h13.988l1.699-12.969H5.657zM17.372 13H6.922L5.888 4.031h12.66L17.372 13z"/>
                <circle cx="6.984" cy="18" r="2"/>
                <circle cx="15.984" cy="18" r="2"/>
            </g>
        </svg>
    </symbol>
</svg>
